#!OML:ASF F:\VICON\USERDATA\INSTALL\rory3\rory3.ASF
:FULLY-SPECIFIED
:DEGREES
458
root -3.88349 17.6934 9.59446 -181.276 -2.34945 176.034
lowerback 12.2952 -0.186564 -3.69251
upperback 1.17307 -0.809261 1.50335
thorax -5.59592 -0.358102 3.81529
lowerneck -18.0269 -1.87143 -12.0319
upperneck 35.7772 -4.58412 7.01531
head 16.2338 -3.67664 4.01379
rclavicle -3.27995e-015 -6.36111e-015
rhumerus -36.918 -24.2935 -68.198
rradius 34.2852
rwrist 9.07837
rhand -14.1918 9.1878
rfingers 7.12502
rthumb 11.9442 -20.4515
lclavicle -3.27995e-015 -6.36111e-015
lhumerus -31.3965 -9.25067 92.7296
lradius 40.8001
lwrist 4.39304
lhand -21.1924 23.4736
lfingers 7.12502
lthumb 5.18859 53.3901
rfemur -8.75286 8.58806 5.96595
rtibia 40.8578
rfoot -18.9732 -1.25077
rtoes -5.52714
lfemur -2.36381 -5.17772 -18.3435
ltibia 20.0315
lfoot -11.9919 2.53488
ltoes -12.0859
459
root -3.95353 17.6979 9.60145 -181.224 -2.46499 175.982
lowerback 12.2808 -0.159855 -3.8815
upperback 1.16621 -0.799541 1.46022
thorax -5.59426 -0.348421 3.87515
lowerneck -18.1568 -1.87665 -11.9257
upperneck 35.8123 -4.5646 6.93142
head 16.2753 -3.65883 3.96312
rclavicle 9.83984e-015 -7.95139e-016
rhumerus -36.9283 -24.1405 -68.5749
rradius 34.0664
rwrist 9.43504
rhand -14.4383 9.24025
rfingers 7.12502
rthumb 11.7065 -20.4127
lclavicle 9.83984e-015 -7.95139e-016
lhumerus -31.3276 -9.38946 92.5785
lradius 40.7769
lwrist 4.30914
lhand -21.122 23.235
lfingers 7.12502
lthumb 5.25658 53.1498
rfemur -9.1761 8.11597 6.84719
rtibia 41.7553
rfoot -19.967 -0.252816
rtoes -6.96002
lfemur -2.55902 -5.36302 -18.6796
ltibia 20.275
lfoot -12.1381 2.64824
ltoes -11.6568
460
root -4.01977 17.7048 9.60508 -181.232 -2.61838 175.905
lowerback 12.3247 -0.152133 -4.16815
upperback 1.13891 -0.828516 1.45518
thorax -5.64126 -0.353263 4.03902
lowerneck -18.2398 -1.84357 -11.8853
upperneck 35.8908 -4.49311 6.85661
head 16.3222 -3.63617 3.93818
rclavicle 2.01766e-014 2.94201e-014
rhumerus -37.0529 -23.9464 -68.8534
rradius 33.9676
rwrist 9.6146
rhand -14.4311 9.19683
rfingers 7.12502
rthumb 11.7134 -20.4557
lclavicle 2.01766e-014 2.94201e-014
lhumerus -31.3458 -9.31337 92.4424
lradius 40.7811
lwrist 4.33276
lhand -21.3005 22.9201
lfingers 7.12502
lthumb 5.08421 52.8391
rfemur -9.50074 7.65603 7.7698
rtibia 42.5862
rfoot -20.947 0.542417
rtoes -8.12438
lfemur -2.69502 -5.52722 -19.0189
ltibia 20.5637
lfoot -12.3669 2.65558
ltoes -11.2168
461
root -4.08249 17.7041 9.61186 -181.203 -2.71675 175.989
lowerback 12.293 -0.149896 -4.28758
upperback 1.12636 -0.837987 1.47382
thorax -5.63411 -0.354134 4.1278
lowerneck -18.2192 -1.81164 -12.0695
upperneck 35.8381 -4.4698 7.13482
head 16.2999 -3.60991 4.10024
rclavicle 5.76476e-015 1.66979e-014
rhumerus -37.1646 -23.646 -69.2034
rradius 33.9531
rwrist 9.51116
rhand -14.2216 9.58431
rfingers 7.12502
rthumb 11.9154 -20.0566
lclavicle 5.76476e-015 1.66979e-014
lhumerus -31.4322 -9.14629 92.2317
lradius 40.9775
lwrist 4.41124
lhand -21.4559 22.7376
lfingers 7.12502
lthumb 4.93417 52.6601
rfemur -9.85638 7.08986 8.88822
rtibia 43.3588
rfoot -21.7981 1.33124
rtoes -8.94097
lfemur -2.87523 -5.62023 -19.1461
ltibia 20.8118
lfoot -12.4858 2.59453
ltoes -10.7515
462
root -4.14479 17.6998 9.61789 -181.18 -2.78712 176.097
lowerback 12.2158 -0.109689 -4.31354
upperback 1.14005 -0.785161 1.45114
thorax -5.58192 -0.329184 4.10778
lowerneck -18.0856 -1.85691 -12.135
upperneck 35.6486 -4.56143 7.32164
head 16.1918 -3.61695 4.17467
rclavicle 2.08724e-015 5.56597e-015
rhumerus -37.3261 -23.5902 -69.5269
rradius 33.9768
rwrist 9.54181
rhand -14.2435 9.87249
rfingers 7.12502
rthumb 11.8943 -19.7697
lclavicle 2.08724e-015 5.56597e-015
lhumerus -31.4599 -9.04617 92.0079
lradius 41.1319
lwrist 4.32759
lhand -21.4807 23.3735
lfingers 7.12502
lthumb 4.91021 53.2966
rfemur -10.1508 6.46949 10.0358
rtibia 44.0401
rfoot -22.6265 2.30183
rtoes -9.99991
lfemur -3.05235 -5.73556 -19.2565
ltibia 21.1059
lfoot -12.599 2.59674
ltoes -10.544
463
root -4.20364 17.6965 9.62369 -181.183 -2.90115 176.004
lowerback 12.2047 -0.0531562 -4.54156
upperback 1.14665 -0.744425 1.36101
thorax -5.57149 -0.304713 4.13475
lowerneck -17.9427 -1.89457 -12.0488
upperneck 35.4778 -4.62714 7.31939
head 16.0779 -3.61929 4.14239
rclavicle 7.35503e-015 4.77083e-015
rhumerus -37.5308 -23.7611 -69.7719
rradius 33.9774
rwrist 9.75431
rhand -14.3377 9.57411
rfingers 7.12502
rthumb 11.8035 -20.0733
lclavicle 7.35503e-015 4.77083e-015
lhumerus -31.3993 -8.92909 91.7495
lradius 41.0726
lwrist 4.34203
lhand -21.5988 24.5056
lfingers 7.12502
lthumb 4.79621 54.4313
rfemur -10.4229 5.75572 10.9907
rtibia 44.6093
rfoot -23.4451 3.30433
rtoes -11.5127
lfemur -3.25823 -5.84513 -19.5795
ltibia 21.5467
lfoot -12.7028 2.61632
ltoes -10.5192
464
root -4.26287 17.6929 9.6298 -181.133 -3.00624 175.974
lowerback 12.1288 -0.0225123 -4.68161
upperback 1.13333 -0.720311 1.29192
thorax -5.54512 -0.289553 4.13565
lowerneck -17.8086 -1.92817 -12.0684
upperneck 35.363 -4.69797 7.39461
head 16.001 -3.63532 4.16342
rclavicle 4.27387e-015 -1.11319e-014
rhumerus -37.7385 -23.8523 -70.0054
rradius 34.0068
rwrist 9.82372
rhand -14.3107 9.37377
rfingers 7.12502
rthumb 11.8295 -20.2721
lclavicle 4.27387e-015 -1.11319e-014
lhumerus -31.2697 -8.52941 91.439
lradius 40.8854
lwrist 4.34483
lhand -21.8972 24.5626
lfingers 7.12502
lthumb 4.50806 54.4946
rfemur -10.7148 4.92926 12.0118
rtibia 45.052
rfoot -24.21 4.2857
rtoes -13.5659
lfemur -3.58618 -5.86603 -19.8264
ltibia 22.0863
lfoot -12.8994 2.59661
ltoes -10.6072
465
root -4.32108 17.6873 9.63879 -181.066 -3.11824 176.183
lowerback 12.1041 -0.0439873 -4.58208
upperback 1.09357 -0.730547 1.31156
thorax -5.57307 -0.293726 4.1015
lowerneck -17.8383 -1.94559 -12.142
upperneck 35.4075 -4.72919 7.45888
head 16.0393 -3.65295 4.20041
rclavicle -5.96354e-015 6.36111e-015
rhumerus -37.8568 -23.8229 -70.2411
rradius 33.9833
rwrist 9.83073
rhand -14.1818 9.46858
rfingers 7.12502
rthumb 11.9538 -20.1701
lclavicle -5.96354e-015 6.36111e-015
lhumerus -31.2941 -7.94366 91.1241
lradius 40.9015
lwrist 4.36028
lhand -22.1614 24.2837
lfingers 7.12502
lthumb 4.25289 54.221
rfemur -10.9616 4.1181 13.3019
rtibia 45.3728
rfoot -24.9063 5.47345
rtoes -14.8665
lfemur -4.03795 -5.67465 -19.7705
ltibia 22.7004
lfoot -13.2403 2.40922
ltoes -10.8064
466
root -4.37746 17.683 9.64959 -180.983 -3.16917 176.518
lowerback 12.1259 -0.0446682 -4.34346
upperback 1.05233 -0.696352 1.34903
thorax -5.63448 -0.278677 4.00084
lowerneck -18.0094 -1.96368 -12.1633
upperneck 35.4768 -4.75407 7.54106
head 16.1226 -3.65221 4.23925
rclavicle 5.96354e-016 2.70347e-014
rhumerus -37.8526 -23.5949 -70.6203
rradius 33.9101
rwrist 9.5418
rhand -14.1365 9.52565
rfingers 7.12502
rthumb 11.9975 -20.1105
lclavicle 5.96354e-016 2.70347e-014
lhumerus -31.334 -7.43739 90.7989
lradius 40.9807
lwrist 4.48296
lhand -22.4596 24.4491
lfingers 7.12502
lthumb 3.965 54.3919
rfemur -11.2784 3.26687 14.7324
rtibia 45.6037
rfoot -25.6498 6.84601
rtoes -16.0267
lfemur -4.54616 -5.58923 -19.5776
ltibia 23.4046
lfoot -13.574 2.40533
ltoes -10.9527
467
root -4.43732 17.6726 9.65775 -180.817 -3.25133 176.657
lowerback 12.0122 -0.0654728 -4.24434
upperback 0.998782 -0.701624 1.33878
thorax -5.62814 -0.280592 3.93277
lowerneck -18.0687 -1.99868 -12.2652
upperneck 35.393 -4.75423 7.626
head 16.1017 -3.64073 4.2949
rclavicle 1.48095e-014 9.54166e-015
rhumerus -37.8703 -23.5379 -70.8938
rradius 33.8336
rwrist 9.46982
rhand -14.1886 9.43162
rfingers 7.12502
rthumb 11.9473 -20.2075
lclavicle 1.48095e-014 9.54166e-015
lhumerus -31.329 -6.8707 90.5038
lradius 40.9634
lwrist 4.60872
lhand -22.3003 25.5141
lfingers 7.12502
lthumb 4.11875 55.4541
rfemur -11.6551 2.21875 15.9024
rtibia 45.7427
rfoot -26.368 8.33941
rtoes -17.4536
lfemur -5.12274 -5.55108 -19.6128
ltibia 24.1456
lfoot -13.9102 2.37087
ltoes -10.9473
468
root -4.49367 17.6606 9.66359 -180.688 -3.35872 176.659
lowerback 11.8447 -0.074121 -4.2945
upperback 0.989029 -0.712834 1.27346
thorax -5.54403 -0.286123 3.89058
lowerneck -18.119 -2.03695 -12.1726
upperneck 35.2971 -4.77639 7.57656
head 16.0653 -3.62812 4.25113
rclavicle 5.81445e-015 0
rhumerus -37.8987 -23.7004 -71.0934
rradius 33.7053
rwrist 9.51713
rhand -14.3191 9.63209
rfingers 7.12502
rthumb 11.8214 -20.0143
lclavicle 5.81445e-015 0
lhumerus -31.2412 -6.29019 90.2016
lradius 40.8546
lwrist 4.87844
lhand -22.3643 26.7787
lfingers 7.12502
lthumb 4.05698 56.7199
rfemur -11.9988 1.11403 16.9499
rtibia 45.8018
rfoot -26.8061 10.1372
rtoes -17.245
lfemur -5.63608 -5.53928 -19.7878
ltibia 24.8576
lfoot -14.2788 2.29483
ltoes -10.6165
469
root -4.54489 17.6526 9.67169 -180.597 -3.43408 176.84
lowerback 11.7857 -0.0616865 -4.21617
upperback 0.950888 -0.680915 1.26374
thorax -5.55538 -0.269853 3.82987
lowerneck -18.1822 -2.03337 -12.0007
upperneck 35.3195 -4.78145 7.48397
head 16.0841 -3.61589 4.17946
rclavicle -7.45443e-015 -4.77083e-015
rhumerus -38.0041 -23.832 -71.2821
rradius 33.6281
rwrist 9.39761
rhand -14.4722 10.0035
rfingers 7.12502
rthumb 11.6738 -19.6513
lclavicle -7.45443e-015 -4.77083e-015
lhumerus -31.2005 -5.76878 89.9192
lradius 40.7028
lwrist 5.25079
lhand -22.9011 27.155
lfingers 7.12502
lthumb 3.53863 57.1054
rfemur -12.3468 0.115921 18.2608
rtibia 45.7704
rfoot -27.0548 11.9054
rtoes -16.3035
lfemur -6.15892 -5.47176 -19.7249
ltibia 25.5711
lfoot -14.6097 2.11253
ltoes -9.95768
470
root -4.60347 17.6422 9.67315 -180.555 -3.3924 176.896
lowerback 11.7559 -0.0143814 -4.18396
upperback 0.89711 -0.610096 1.24548
thorax -5.60285 -0.231985 3.78081
lowerneck -18.1216 -2.03212 -12.0805
upperneck 35.3217 -4.76482 7.4927
head 16.0712 -3.62122 4.20065
rclavicle 1.3418e-015 -1.43125e-014
rhumerus -38.1818 -23.6547 -71.4727
rradius 33.6912
rwrist 9.12475
rhand -14.6372 9.78522
rfingers 7.12502
rthumb 11.5146 -19.8785
lclavicle 1.3418e-015 -1.43125e-014
lhumerus -31.3132 -5.23685 89.7234
lradius 40.6092
lwrist 5.70174
lhand -23.5276 27.0005
lfingers 7.12502
lthumb 2.93358 56.9601
rfemur -12.5661 -0.765299 19.3577
rtibia 45.6488
rfoot -26.8815 13.6875
rtoes -14.8626
lfemur -6.58311 -5.28133 -19.8496
ltibia 26.2703
lfoot -14.9307 1.98582
ltoes -9.82262
471
root -4.66929 17.6213 9.66905 -180.56 -3.22391 176.814
lowerback 11.6537 0.0681604 -4.15363
upperback 0.898509 -0.496477 1.13633
thorax -5.55619 -0.178538 3.62795
lowerneck -18.1865 -2.00164 -12.1449
upperneck 35.3324 -4.73015 7.63934
head 16.0935 -3.59259 4.28574
rclavicle -3.57812e-015 0
rhumerus -38.284 -23.6686 -71.6496
rradius 33.6283
rwrist 9.11899
rhand -14.7349 9.48598
rfingers 7.12502
rthumb 11.4204 -20.183
lclavicle -3.57812e-015 0
lhumerus -31.4286 -4.73518 89.4375
lradius 40.5432
lwrist 6.14169
lhand -23.5464 27.0916
lfingers 7.12502
lthumb 2.91546 57.0514
rfemur -12.6033 -1.62674 20.1843
rtibia 45.4432
rfoot -26.2127 15.2153
rtoes -13.515
lfemur -6.8539 -5.14801 -20.1755
ltibia 26.9561
lfoot -15.3407 2.00971
ltoes -9.37828
